<?xml version="1.0" encoding="UTF-8"?>
<!DOCTYPE svg PUBLIC "-//W3C//DTD SVG 1.1//EN" "http://www.w3.org/Graphics/SVG/1.1/DTD/svg11.dtd">
<svg xmlns="http://www.w3.org/2000/svg" version="1.1" width="200px" height="150px" style="shape-rendering:geometricPrecision; text-rendering:geometricPrecision; image-rendering:optimizeQuality; fill-rule:evenodd; clip-rule:evenodd" xmlns:xlink="http://www.w3.org/1999/xlink">
<g><path style="opacity:1" fill="#e5d361" d="M 115.5,20.5 C 115.414,21.4959 115.748,22.3292 116.5,23C 121.808,25.9579 127.141,28.9579 132.5,32C 133.793,32.49 135.127,32.6567 136.5,32.5C 136.712,34.3841 137.712,35.7174 139.5,36.5C 138.167,37.1667 136.833,37.8333 135.5,38.5C 136.59,39.6086 136.59,40.6086 135.5,41.5C 134.158,39.9951 132.492,39.3285 130.5,39.5C 129.833,39.5 129.167,39.5 128.5,39.5C 127.508,39.6716 126.842,39.3382 126.5,38.5C 126.027,37.0937 125.027,36.427 123.5,36.5C 122.486,35.3263 121.153,34.6596 119.5,34.5C 119.027,33.0937 118.027,32.427 116.5,32.5C 114.664,30.412 112.331,29.0787 109.5,28.5C 108.101,27.1103 106.434,26.1103 104.5,25.5C 103.508,25.6716 102.842,25.3382 102.5,24.5C 101.694,23.2719 100.694,22.2719 99.5,21.5C 102.313,21.5481 104.979,22.2147 107.5,23.5C 108.167,22.8333 108.833,22.1667 109.5,21.5C 110.506,21.9377 110.506,22.6043 109.5,23.5C 111.167,24.8333 112.833,24.8333 114.5,23.5C 112.772,21.7745 110.772,20.4411 108.5,19.5C 107.614,18.675 107.281,17.675 107.5,16.5C 104.768,15.5775 101.935,14.5775 99,13.5C 95.0848,13.9304 92.5848,15.9304 91.5,19.5C 88.6387,19.5126 87.6387,20.6793 88.5,23C 87.5509,23.6172 86.7175,23.4506 86,22.5C 84.6233,23.9642 84.6233,24.9642 86,25.5C 90.2256,24.2747 94.3923,22.9413 98.5,21.5C 98.1667,22.1667 97.8333,22.8333 97.5,23.5C 97.1583,24.3382 96.4916,24.6716 95.5,24.5C 92.6689,25.0787 90.3356,26.412 88.5,28.5C 88.1583,29.3382 87.4916,29.6716 86.5,29.5C 84.9731,29.427 83.9731,30.0937 83.5,31.5C 82.4863,32.6737 81.153,33.3404 79.5,33.5C 80.6843,32.3121 80.6843,31.1455 79.5,30C 80.8333,29.6667 82.1667,29.3333 83.5,29C 84.7112,28.1072 84.7112,27.2739 83.5,26.5C 78.4163,26.0131 73.4163,26.6797 68.5,28.5C 78.0566,21.6551 88.3899,15.9884 99.5,11.5C 105.361,13.7249 110.695,16.7249 115.5,20.5 Z"/></g>
<g><path style="opacity:1" fill="#f4cf43" d="M 99.5,21.5 C 99.1667,21.5 98.8333,21.5 98.5,21.5C 94.3923,22.9413 90.2256,24.2747 86,25.5C 84.6233,24.9642 84.6233,23.9642 86,22.5C 86.7175,23.4506 87.5509,23.6172 88.5,23C 87.6387,20.6793 88.6387,19.5126 91.5,19.5C 92.5848,15.9304 95.0848,13.9304 99,13.5C 101.935,14.5775 104.768,15.5775 107.5,16.5C 107.281,17.675 107.614,18.675 108.5,19.5C 110.772,20.4411 112.772,21.7745 114.5,23.5C 112.833,24.8333 111.167,24.8333 109.5,23.5C 110.506,22.6043 110.506,21.9377 109.5,21.5C 108.833,22.1667 108.167,22.8333 107.5,23.5C 104.979,22.2147 102.313,21.5481 99.5,21.5 Z"/></g>
<g><path style="opacity:0.024" fill="#1d190b" d="M 98.5,21.5 C 98.8333,21.5 99.1667,21.5 99.5,21.5C 100.694,22.2719 101.694,23.2719 102.5,24.5C 100.784,24.3713 99.1172,24.038 97.5,23.5C 97.8333,22.8333 98.1667,22.1667 98.5,21.5 Z"/></g>
<g><path style="opacity:0.165" fill="#17170b" d="M 104.5,25.5 C 106.434,26.1103 108.101,27.1103 109.5,28.5C 107.067,28.7271 105.401,27.7271 104.5,25.5 Z"/></g>
<g><path style="opacity:0.063" fill="#120f07" d="M 95.5,24.5 C 93.6597,26.6689 91.3263,28.0023 88.5,28.5C 90.3356,26.412 92.6689,25.0787 95.5,24.5 Z"/></g>
<g><path style="opacity:1" fill="#b2af6d" d="M 115.5,20.5 C 122.964,23.7308 129.964,27.7308 136.5,32.5C 135.127,32.6567 133.793,32.49 132.5,32C 127.141,28.9579 121.808,25.9579 116.5,23C 115.748,22.3292 115.414,21.4959 115.5,20.5 Z"/></g>
<g><path style="opacity:0.945" fill="#a5a469" d="M 68.5,28.5 C 67.5144,30.4077 65.8477,31.4077 63.5,31.5C 64.6594,29.7497 66.326,28.7497 68.5,28.5 Z"/></g>
<g><path style="opacity:0.035" fill="#1f1a14" d="M 86.5,29.5 C 86.0269,30.9063 85.0269,31.573 83.5,31.5C 83.9731,30.0937 84.9731,29.427 86.5,29.5 Z"/></g>
<g><path style="opacity:0.035" fill="#141104" d="M 109.5,28.5 C 112.331,29.0787 114.664,30.412 116.5,32.5C 113.674,32.0023 111.34,30.6689 109.5,28.5 Z"/></g>
<g><path style="opacity:0.063" fill="#171306" d="M 116.5,32.5 C 118.027,32.427 119.027,33.0937 119.5,34.5C 117.973,34.573 116.973,33.9063 116.5,32.5 Z"/></g>
<g><path style="opacity:0.024" fill="#1c1b11" d="M 79.5,33.5 C 79.0269,34.9063 78.0269,35.573 76.5,35.5C 76.9731,34.0937 77.9731,33.427 79.5,33.5 Z"/></g>
<g><path style="opacity:0.047" fill="#101000" d="M 119.5,34.5 C 121.153,34.6596 122.486,35.3263 123.5,36.5C 121.62,36.7709 120.287,36.1042 119.5,34.5 Z"/></g>
<g><path style="opacity:0.027" fill="#212116" d="M 76.5,35.5 C 75.089,37.539 73.089,38.539 70.5,38.5C 72.1815,36.9925 74.1815,35.9925 76.5,35.5 Z"/></g>
<g><path style="opacity:0.029" fill="#0e1103" d="M 123.5,36.5 C 125.027,36.427 126.027,37.0937 126.5,38.5C 124.821,38.7148 123.821,38.0481 123.5,36.5 Z"/></g>
<g><path style="opacity:0.02" fill="#14130c" d="M 70.5,38.5 C 70.6107,39.1174 70.944,39.6174 71.5,40C 69.2346,41.1178 66.9013,41.9512 64.5,42.5C 66.1184,40.684 68.1184,39.3507 70.5,38.5 Z"/></g>
<g><path style="opacity:0.031" fill="#121205" d="M 128.5,39.5 C 129.167,39.5 129.833,39.5 130.5,39.5C 131.694,40.2719 132.694,41.2719 133.5,42.5C 131.326,42.2503 129.659,41.2503 128.5,39.5 Z"/></g>
<g><path style="opacity:1" fill="#f2ec8e" d="M 136.5,32.5 C 139.721,33.7093 142.721,35.376 145.5,37.5C 146.484,40.4281 146.817,43.4281 146.5,46.5C 142.958,46.8128 139.625,46.4794 136.5,45.5C 136.5,43.5 135.5,42.5 133.5,42.5C 132.694,41.2719 131.694,40.2719 130.5,39.5C 132.492,39.3285 134.158,39.9951 135.5,41.5C 136.59,40.6086 136.59,39.6086 135.5,38.5C 136.833,37.8333 138.167,37.1667 139.5,36.5C 137.712,35.7174 136.712,34.3841 136.5,32.5 Z"/></g>
<g><path style="opacity:1" fill="#f2e872" d="M 79.5,33.5 C 77.9731,33.427 76.9731,34.0937 76.5,35.5C 74.1815,35.9925 72.1815,36.9925 70.5,38.5C 68.1184,39.3507 66.1184,40.684 64.5,42.5C 63.365,43.4745 62.365,44.6412 61.5,46C 58.1832,46.4983 54.8499,46.665 51.5,46.5C 51.1826,43.4281 51.5159,40.4281 52.5,37.5C 56.0608,35.2212 59.7274,33.2212 63.5,31.5C 65.8477,31.4077 67.5144,30.4077 68.5,28.5C 73.4163,26.6797 78.4163,26.0131 83.5,26.5C 84.7112,27.2739 84.7112,28.1072 83.5,29C 82.1667,29.3333 80.8333,29.6667 79.5,30C 80.6843,31.1455 80.6843,32.3121 79.5,33.5 Z"/></g>
<g><path style="opacity:0.047" fill="#040701" d="M 133.5,42.5 C 135.5,42.5 136.5,43.5 136.5,45.5C 135.167,44.8333 134.167,43.8333 133.5,42.5 Z"/></g>
<g><path style="opacity:0.318" fill="#b4ad6d" d="M 72.5,45.5 C 80.1667,44.1667 87.8333,44.1667 95.5,45.5C 88.3134,45.1755 81.3134,45.5088 74.5,46.5C 73.8333,46.1667 73.1667,45.8333 72.5,45.5 Z"/></g>
<g><path style="opacity:0.157" fill="#757355" d="M 155.5,49.5 C 149.5,49.5 143.5,49.5 137.5,49.5C 137.5,52.5 137.5,55.5 137.5,58.5C 135.974,57.5081 135.307,56.0081 135.5,54C 135.603,52.4385 135.937,50.9385 136.5,49.5C 142.988,48.1826 149.322,48.1826 155.5,49.5 Z"/></g>
<g><path style="opacity:1" fill="#c7c282" d="M 123.5,44.5 C 124.482,58.4213 124.815,72.4213 124.5,86.5C 123.5,86.5 122.5,86.5 121.5,86.5C 121.783,85.7109 122.283,85.0442 123,84.5C 123.667,71.8333 123.667,59.1667 123,46.5C 120.619,45.565 118.119,45.2317 115.5,45.5C 115.5,45.1667 115.5,44.8333 115.5,44.5C 118.326,43.6282 120.993,43.6282 123.5,44.5 Z"/></g>
<g><path style="opacity:1" fill="#f8f09d" d="M 155.5,49.5 C 162.863,49.1694 170.197,49.5027 177.5,50.5C 177.145,51.5223 176.478,52.189 175.5,52.5C 169.872,51.1707 163.872,50.504 157.5,50.5C 151.5,50.8333 145.5,51.1667 139.5,51.5C 138.253,53.0421 138.253,54.5421 139.5,56C 150.143,57.0426 160.809,57.5426 171.5,57.5C 160.346,58.4948 149.012,58.8281 137.5,58.5C 137.5,55.5 137.5,52.5 137.5,49.5C 143.5,49.5 149.5,49.5 155.5,49.5 Z"/></g>
<g><path style="opacity:0.373" fill="#b9af6c" d="M 114.5,61.5 C 113.081,62.4511 111.415,62.7845 109.5,62.5C 109.5,56.8333 109.5,51.1667 109.5,45.5C 106.5,45.5 103.5,45.5 100.5,45.5C 103.045,44.4964 106.379,44.163 110.5,44.5C 110.5,50.1667 110.5,55.8333 110.5,61.5C 111.833,61.5 113.167,61.5 114.5,61.5 Z"/></g>
<g><path style="opacity:1" fill="#272809" d="M 72.5,45.5 C 73.1667,45.8333 73.8333,46.1667 74.5,46.5C 74.5,60.1667 74.5,73.8333 74.5,87.5C 73.0532,86.8658 72.3866,85.6991 72.5,84C 72.5621,71.1701 72.5621,58.3368 72.5,45.5 Z"/></g>
<g><path style="opacity:0.176" fill="#867f4c" d="M 115.5,44.5 C 115.5,44.8333 115.5,45.1667 115.5,45.5C 115.5,50.1667 115.5,54.8333 115.5,59.5C 119.286,59.638 119.286,60.3047 115.5,61.5C 114.196,55.734 114.196,50.0673 115.5,44.5 Z"/></g>
<g><path style="opacity:1" fill="#f8eb6f" d="M 53.5,49.5 C 55.2646,50.4614 57.2646,50.7947 59.5,50.5C 59.9167,53.0792 59.25,55.2458 57.5,57C 47.172,57.4998 36.8387,57.6665 26.5,57.5C 24.159,55.3437 22.159,52.8437 20.5,50C 31.495,49.5002 42.495,49.3335 53.5,49.5 Z"/></g>
<g><path style="opacity:1" fill="#f9dd4d" d="M 22.5,51.5 C 31.6575,50.3424 40.9908,50.1757 50.5,51C 52.3591,52.9814 54.6924,53.9814 57.5,54C 47.2919,56.3364 36.9586,57.003 26.5,56C 25.2668,54.3333 23.9335,52.8333 22.5,51.5 Z"/></g>
<g><path style="opacity:1" fill="#f6df5b" d="M 97.5,64.5 C 97.5,65.1667 97.1667,65.5 96.5,65.5C 91.8354,66.0569 87.5021,67.3902 83.5,69.5C 82.0222,69.238 80.6888,69.5713 79.5,70.5C 80.325,71.3857 81.325,71.719 82.5,71.5C 82.5,76.1667 82.5,80.8333 82.5,85.5C 80.1667,85.5 77.8333,85.5 75.5,85.5C 75.5,72.5 75.5,59.5 75.5,46.5C 82.175,46.3337 88.8417,46.5004 95.5,47C 96.1476,52.9328 96.8142,58.7661 97.5,64.5 Z M 87.5,49.5 C 88.0147,54.4797 87.348,59.1464 85.5,63.5C 84.8333,63.1667 84.1667,62.8333 83.5,62.5C 83.3345,58.4862 83.5012,54.4862 84,50.5C 85.0113,49.6634 86.1779,49.33 87.5,49.5 Z"/></g>
<g><path style="opacity:0.081" fill="#0c0804" d="M 124.5,86.5 C 124.815,72.4213 124.482,58.4213 123.5,44.5C 123.81,43.2617 124.31,43.2617 125,44.5C 125.638,45.6086 126.138,46.7753 126.5,48C 125.176,60.1791 125.176,72.3457 126.5,84.5C 126.145,85.5223 125.478,86.189 124.5,86.5 Z"/></g>
<g><path style="opacity:1" fill="#ecd668" d="M 175.5,52.5 C 174.396,54.3885 173.063,56.0552 171.5,57.5C 160.809,57.5426 150.143,57.0426 139.5,56C 138.253,54.5421 138.253,53.0421 139.5,51.5C 145.5,51.1667 151.5,50.8333 157.5,50.5C 163.872,50.504 169.872,51.1707 175.5,52.5 Z"/></g>
<g><path style="opacity:0.695" fill="#cbc783" d="M 26.5,57.5 C 36.8387,57.6665 47.172,57.4998 57.5,57C 59.25,55.2458 59.9167,53.0792 59.5,50.5C 57.2646,50.7947 55.2646,50.4614 53.5,49.5C 56.5453,49.2964 59.3787,49.2964 62,49.5C 62.7772,52.4294 62.6105,55.2628 61.5,58C 49.6593,58.8261 37.9927,58.6595 26.5,57.5 Z"/></g>
<g><path style="opacity:1" fill="#c8c476" d="M 95.5,45.5 C 96.1174,45.6107 96.6174,45.944 97,46.5C 97.4995,52.4908 97.6662,58.4908 97.5,64.5C 96.8142,58.7661 96.1476,52.9328 95.5,47C 88.8417,46.5004 82.175,46.3337 75.5,46.5C 75.5,59.5 75.5,72.5 75.5,85.5C 77.8333,85.5 80.1667,85.5 82.5,85.5C 82.5,80.8333 82.5,76.1667 82.5,71.5C 81.325,71.719 80.325,71.3857 79.5,70.5C 80.6888,69.5713 82.0222,69.238 83.5,69.5C 84.5735,75.1154 84.7401,80.7821 84,86.5C 82.6472,87.7042 80.9806,88.3708 79,88.5C 77.2933,88.4915 75.7933,88.1582 74.5,87.5C 74.5,73.8333 74.5,60.1667 74.5,46.5C 81.3134,45.5088 88.3134,45.1755 95.5,45.5 Z M 87.5,49.5 C 88.0147,54.4797 87.348,59.1464 85.5,63.5C 84.8333,63.1667 84.1667,62.8333 83.5,62.5C 83.3345,58.4862 83.5012,54.4862 84,50.5C 85.0113,49.6634 86.1779,49.33 87.5,49.5 Z"/></g>
<g><path style="opacity:0.051" fill="#282506" d="M 87.5,49.5 C 88.4861,53.97 88.8195,58.6367 88.5,63.5C 87.5,63.5 86.5,63.5 85.5,63.5C 87.348,59.1464 88.0147,54.4797 87.5,49.5 Z"/></g>
<g><path style="opacity:0.329" fill="#928a59" d="M 60.5,70.5 C 60.5,67.5 60.5,64.5 60.5,61.5C 50.8276,61.3335 41.1609,61.5002 31.5,62C 30.944,62.3826 30.6107,62.8826 30.5,63.5C 29.5222,63.189 28.8555,62.5223 28.5,61.5C 39.4849,60.3342 50.4849,60.1676 61.5,61C 62.6105,63.7372 62.7772,66.5706 62,69.5C 61.6174,70.056 61.1174,70.3893 60.5,70.5 Z"/></g>
<g><path style="opacity:0.478" fill="#958d63" d="M 166.5,64.5 C 166.5,63.5 166.5,62.5 166.5,61.5C 156.833,61.5 147.167,61.5 137.5,61.5C 137.5,64.5 137.5,67.5 137.5,70.5C 136.883,70.3893 136.383,70.056 136,69.5C 135.223,66.5706 135.39,63.7372 136.5,61C 147.5,60.3333 158.5,60.3333 169.5,61C 168.364,62.1451 167.364,63.3117 166.5,64.5 Z"/></g>
<g><path style="opacity:1" fill="#e4d169" d="M 100.5,45.5 C 103.5,45.5 106.5,45.5 109.5,45.5C 109.5,51.1667 109.5,56.8333 109.5,62.5C 108.512,57.3595 108.179,52.0262 108.5,46.5C 106.5,46.5 104.5,46.5 102.5,46.5C 102.5,59.5 102.5,72.5 102.5,85.5C 104.5,85.5 106.5,85.5 108.5,85.5C 108.5,80.1667 108.5,74.8333 108.5,69.5C 109.167,69.5 109.833,69.5 110.5,69.5C 110.93,71.38 110.93,73.38 110.5,75.5C 110.5,79.1667 110.5,82.8333 110.5,86.5C 107.167,86.5 103.833,86.5 100.5,86.5C 100.5,72.8333 100.5,59.1667 100.5,45.5 Z"/></g>
<g><path style="opacity:0.184" fill="#3b2a0d" d="M 83.5,62.5 C 84.1667,62.8333 84.8333,63.1667 85.5,63.5C 84.3774,64.7574 83.7107,64.4241 83.5,62.5 Z"/></g>
<g><path style="opacity:1" fill="#f8ef7e" d="M 60.5,70.5 C 52.4931,70.6664 44.4931,70.4997 36.5,70C 35.944,69.6174 35.6107,69.1174 35.5,68.5C 33.5,67.1667 31.8333,65.5 30.5,63.5C 30.6107,62.8826 30.944,62.3826 31.5,62C 41.1609,61.5002 50.8276,61.3335 60.5,61.5C 60.5,64.5 60.5,67.5 60.5,70.5 Z"/></g>
<g><path style="opacity:1" fill="#f8e355" d="M 35.5,68.5 C 35.2779,66.3925 34.2779,64.7258 32.5,63.5C 35.6667,63.1667 38.8333,62.8333 42,62.5C 46.6612,62.3123 51.1612,62.979 55.5,64.5C 49.4791,68.0995 42.8124,69.4328 35.5,68.5 Z"/></g>
<g><path style="opacity:1" fill="#f6e363" d="M 115.5,45.5 C 118.119,45.2317 120.619,45.565 123,46.5C 123.667,59.1667 123.667,71.8333 123,84.5C 122.283,85.0442 121.783,85.7109 121.5,86.5C 119.5,86.5 117.5,86.5 115.5,86.5C 115.824,79.6457 115.491,72.979 114.5,66.5C 112.194,66.9926 109.861,67.3259 107.5,67.5C 108.398,66.8423 109.398,66.1757 110.5,65.5C 109.873,64.5832 109.539,63.5832 109.5,62.5C 111.415,62.7845 113.081,62.4511 114.5,61.5C 114.833,61.5 115.167,61.5 115.5,61.5C 119.286,60.3047 119.286,59.638 115.5,59.5C 115.5,54.8333 115.5,50.1667 115.5,45.5 Z"/></g>
<g><path style="opacity:1" fill="#f4e87e" d="M 166.5,64.5 C 165.04,66.4628 163.373,68.2962 161.5,70C 153.507,70.4997 145.507,70.6664 137.5,70.5C 137.5,67.5 137.5,64.5 137.5,61.5C 147.167,61.5 156.833,61.5 166.5,61.5C 166.5,62.5 166.5,63.5 166.5,64.5 Z"/></g>
<g><path style="opacity:0.008" fill="#171408" d="M 96.5,65.5 C 92.597,67.8978 88.2637,69.2311 83.5,69.5C 87.5021,67.3902 91.8354,66.0569 96.5,65.5 Z"/></g>
<g><path style="opacity:0.004" fill="#161107" d="M 114.5,66.5 C 114.5,72.8333 114.5,79.1667 114.5,85.5C 113.511,80.0247 113.178,74.358 113.5,68.5C 112.209,68.2627 111.209,68.596 110.5,69.5C 109.833,69.5 109.167,69.5 108.5,69.5C 106.302,69.5912 105.969,68.9245 107.5,67.5C 109.861,67.3259 112.194,66.9926 114.5,66.5 Z"/></g>
<g><path style="opacity:0.469" fill="#aeaa6c" d="M 60.5,82.5 C 60.5,79.5 60.5,76.5 60.5,73.5C 53.4065,73.1672 47.0731,73.5005 41.5,74.5C 43.5449,75.9228 44.5449,77.9228 44.5,80.5C 42.2812,78.4245 40.2812,76.0912 38.5,73.5C 46.145,72.3352 53.8117,72.1685 61.5,73C 62.6105,75.7372 62.7772,78.5706 62,81.5C 61.6174,82.056 61.1174,82.3893 60.5,82.5 Z"/></g>
<g><path style="opacity:0.663" fill="#a2a276" d="M 158.5,74.5 C 151.687,73.5088 144.687,73.1755 137.5,73.5C 137.5,76.5 137.5,79.5 137.5,82.5C 136.883,82.3893 136.383,82.056 136,81.5C 135.223,78.5706 135.39,75.7372 136.5,73C 144.188,72.1685 151.855,72.3352 159.5,73.5C 159.376,74.1067 159.043,74.44 158.5,74.5 Z"/></g>
<g><path style="opacity:1" fill="#f2ca3a" d="M 109.5,62.5 C 109.539,63.5832 109.873,64.5832 110.5,65.5C 109.398,66.1757 108.398,66.8423 107.5,67.5C 105.969,68.9245 106.302,69.5912 108.5,69.5C 108.5,74.8333 108.5,80.1667 108.5,85.5C 106.5,85.5 104.5,85.5 102.5,85.5C 102.5,72.5 102.5,59.5 102.5,46.5C 104.5,46.5 106.5,46.5 108.5,46.5C 108.179,52.0262 108.512,57.3595 109.5,62.5 Z"/></g>
<g><path style="opacity:1" fill="#f7e860" d="M 41.5,74.5 C 47.5,74.5 53.5,74.5 59.5,74.5C 59.5,76.5 59.5,78.5 59.5,80.5C 54.5,80.5 49.5,80.5 44.5,80.5C 44.5449,77.9228 43.5449,75.9228 41.5,74.5 Z"/></g>
<g><path style="opacity:1" fill="#f6ed84" d="M 158.5,74.5 C 153.512,81.974 146.512,84.6406 137.5,82.5C 137.5,79.5 137.5,76.5 137.5,73.5C 144.687,73.1755 151.687,73.5088 158.5,74.5 Z"/></g>
<g><path style="opacity:1" fill="#f2ef86" d="M 60.5,82.5 C 54.7291,83.1128 49.3958,82.4461 44.5,80.5C 49.5,80.5 54.5,80.5 59.5,80.5C 59.5,78.5 59.5,76.5 59.5,74.5C 53.5,74.5 47.5,74.5 41.5,74.5C 47.0731,73.5005 53.4065,73.1672 60.5,73.5C 60.5,76.5 60.5,79.5 60.5,82.5 Z"/></g>
<g><path style="opacity:1" fill="#403d20" d="M 110.5,75.5 C 111.645,79.3112 111.812,83.3112 111,87.5C 108.119,87.0698 105.286,87.7365 102.5,89.5C 101.575,88.6431 100.908,87.6431 100.5,86.5C 103.833,86.5 107.167,86.5 110.5,86.5C 110.5,82.8333 110.5,79.1667 110.5,75.5 Z"/></g>
<g><path style="opacity:1" fill="#6e6c3f" d="M 114.5,66.5 C 115.491,72.979 115.824,79.6457 115.5,86.5C 117.5,86.5 119.5,86.5 121.5,86.5C 122.5,86.5 123.5,86.5 124.5,86.5C 124.209,87.6491 123.376,88.3158 122,88.5C 120.221,87.6224 118.555,87.6224 117,88.5C 115.251,88.2517 114.418,87.2517 114.5,85.5C 114.5,79.1667 114.5,72.8333 114.5,66.5 Z"/></g>
<g><path style="opacity:0.014" fill="#030e1c" d="M 148.5,88.5 C 149.525,88.8966 149.692,89.5632 149,90.5C 148.536,89.9056 148.369,89.2389 148.5,88.5 Z"/></g>
<g><path style="opacity:0.016" fill="#111205" d="M 133.5,88.5 C 132.341,90.2503 130.674,91.2503 128.5,91.5C 129.659,89.7497 131.326,88.7497 133.5,88.5 Z"/></g>
<g><path style="opacity:0.639" fill="#a6aa7e" d="M 143.5,94.5 C 145.044,91.752 145.71,88.752 145.5,85.5C 141.917,85.2319 138.584,85.8986 135.5,87.5C 135.414,86.5041 135.748,85.6708 136.5,85C 139.817,84.5017 143.15,84.335 146.5,84.5C 146.817,87.5719 146.484,90.5719 145.5,93.5C 144.817,93.8627 144.15,94.1961 143.5,94.5 Z"/></g>
<g><path style="opacity:0.118" fill="#100f04" d="M 64.5,88.5 C 67.267,88.8702 69.267,90.2036 70.5,92.5C 68.1184,91.6493 66.1184,90.316 64.5,88.5 Z"/></g>
<g><path style="opacity:1" fill="#e6e076" d="M 64.5,88.5 C 66.1184,90.316 68.1184,91.6493 70.5,92.5C 70.8333,92.5 71.1667,92.5 71.5,92.5C 71.8333,93.1667 72.1667,93.8333 72.5,94.5C 70.8561,94.2865 69.3561,94.6198 68,95.5C 67.2904,94.0267 66.1238,93.3601 64.5,93.5C 64.3832,95.4835 65.0499,97.1502 66.5,98.5C 67.2739,99.7112 68.1072,99.7112 69,98.5C 69.6077,100.154 70.1077,101.821 70.5,103.5C 64.3956,100.614 58.3956,97.4469 52.5,94C 51.5562,91.2809 51.2229,88.4475 51.5,85.5C 55.226,85.1774 58.8927,85.5108 62.5,86.5C 63.2427,87.1818 63.9094,87.8485 64.5,88.5 Z"/></g>
<g><path style="opacity:0.024" fill="#131505" d="M 126.5,92.5 C 126.027,93.9063 125.027,94.573 123.5,94.5C 123.821,92.9519 124.821,92.2852 126.5,92.5 Z"/></g>
<g><path style="opacity:0.094" fill="#17170d" d="M 71.5,92.5 C 74.8489,93.1695 77.5156,94.8361 79.5,97.5C 77.3131,96.242 74.9798,95.242 72.5,94.5C 72.1667,93.8333 71.8333,93.1667 71.5,92.5 Z"/></g>
<g><path style="opacity:0.475" fill="#201e0e" d="M 123.5,94.5 C 122.101,95.8897 120.434,96.8897 118.5,97.5C 119.401,95.2729 121.067,94.2729 123.5,94.5 Z"/></g>
<g><path style="opacity:0.008" fill="#1e1a15" d="M 83.5,99.5 C 85.0269,99.427 86.0269,100.094 86.5,101.5C 84.9731,101.573 83.9731,100.906 83.5,99.5 Z"/></g>
<g><path style="opacity:0.192" fill="#1a1507" d="M 116.5,98.5 C 115.306,99.2719 114.306,100.272 113.5,101.5C 112.167,101.833 110.833,102.167 109.5,102.5C 111.34,100.331 113.674,98.9977 116.5,98.5 Z"/></g>
<g><path style="opacity:1" fill="#ebdb5d" d="M 72.5,94.5 C 74.9798,95.242 77.3131,96.242 79.5,97.5C 81.153,97.6596 82.4863,98.3263 83.5,99.5C 83.9731,100.906 84.9731,101.573 86.5,101.5C 87.4916,101.328 88.1583,101.662 88.5,102.5C 89.6935,103.272 90.6935,104.272 91.5,105.5C 88.1854,104.836 84.852,104.169 81.5,103.5C 77.8466,104.572 74.1799,104.572 70.5,103.5C 70.1077,101.821 69.6077,100.154 69,98.5C 68.1072,99.7112 67.2739,99.7112 66.5,98.5C 65.0499,97.1502 64.3832,95.4835 64.5,93.5C 66.1238,93.3601 67.2904,94.0267 68,95.5C 69.3561,94.6198 70.8561,94.2865 72.5,94.5 Z"/></g>
<g><path style="opacity:1" fill="#e7db74" d="M 143.5,94.5 C 133.797,100.685 123.797,106.352 113.5,111.5C 114.382,109.616 115.882,108.283 118,107.5C 122.294,100.217 120.794,98.2171 113.5,101.5C 114.306,100.272 115.306,99.2719 116.5,98.5C 116.842,97.6618 117.508,97.3284 118.5,97.5C 120.434,96.8897 122.101,95.8897 123.5,94.5C 125.027,94.573 126.027,93.9063 126.5,92.5C 126.842,91.6618 127.508,91.3284 128.5,91.5C 130.674,91.2503 132.341,90.2503 133.5,88.5C 133.842,87.6618 134.508,87.3284 135.5,87.5C 138.584,85.8986 141.917,85.2319 145.5,85.5C 145.71,88.752 145.044,91.752 143.5,94.5 Z"/></g>
<g><path style="opacity:0.192" fill="#18160b" d="M 109.5,102.5 C 108.101,103.89 106.434,104.89 104.5,105.5C 105.401,103.273 107.067,102.273 109.5,102.5 Z"/></g>
<g><path style="opacity:0.094" fill="#181408" d="M 88.5,102.5 C 91.3263,102.998 93.6597,104.331 95.5,106.5C 94.1667,106.167 92.8333,105.833 91.5,105.5C 90.6935,104.272 89.6935,103.272 88.5,102.5 Z"/></g>
<g><path style="opacity:1" fill="#e1cc5c" d="M 70.5,103.5 C 74.1799,104.572 77.8466,104.572 81.5,103.5C 84.852,104.169 88.1854,104.836 91.5,105.5C 92.8333,105.833 94.1667,106.167 95.5,106.5C 96.4916,106.328 97.1583,106.662 97.5,107.5C 97.8333,108.167 98.1667,108.833 98.5,109.5C 95.8495,108.51 93.1828,107.51 90.5,106.5C 89.8333,106.667 89.1667,106.833 88.5,107C 89.5,107.333 90.5,107.667 91.5,108C 89.6161,108.216 87.9494,108.883 86.5,110C 91.1452,110.54 94.4786,112.873 96.5,117C 98.0249,118.009 99.6916,118.509 101.5,118.5C 100.739,119.391 99.7387,120.058 98.5,120.5C 89.103,114.808 79.7697,109.141 70.5,103.5 Z"/></g>
<g><path style="opacity:0.118" fill="#1d1507" d="M 104.5,105.5 C 102.795,107.192 100.795,108.525 98.5,109.5C 98.1667,108.833 97.8333,108.167 97.5,107.5C 99.7457,106.545 102.079,105.878 104.5,105.5 Z"/></g>
<g><path style="opacity:1" fill="#f1cf48" d="M 113.5,111.5 C 109.864,114.323 105.864,116.656 101.5,118.5C 99.6916,118.509 98.0249,118.009 96.5,117C 94.4786,112.873 91.1452,110.54 86.5,110C 87.9494,108.883 89.6161,108.216 91.5,108C 90.5,107.667 89.5,107.333 88.5,107C 89.1667,106.833 89.8333,106.667 90.5,106.5C 93.1828,107.51 95.8495,108.51 98.5,109.5C 100.795,108.525 102.795,107.192 104.5,105.5C 106.434,104.89 108.101,103.89 109.5,102.5C 110.833,102.167 112.167,101.833 113.5,101.5C 120.794,98.2171 122.294,100.217 118,107.5C 115.882,108.283 114.382,109.616 113.5,111.5 Z"/></g>
<g><path style="opacity:0.901" fill="#ebca2c" d="M 136.5,126.5 C 132.849,126.162 131.183,127.828 131.5,131.5C 133.167,131.5 134.833,131.5 136.5,131.5C 136.5,132.5 136.5,133.5 136.5,134.5C 134.833,134.5 133.167,134.5 131.5,134.5C 131.663,139.547 131.329,144.547 130.5,149.5C 129.833,149.5 129.167,149.5 128.5,149.5C 127.559,144.93 127.226,140.263 127.5,135.5C 126.041,135.567 124.708,135.234 123.5,134.5C 123.427,132.973 124.094,131.973 125.5,131.5C 127.912,131.306 128.912,129.973 128.5,127.5C 129.763,122.815 132.596,121.482 137,123.5C 137.47,124.577 137.303,125.577 136.5,126.5 Z"/></g>
<g><path style="opacity:0.916" fill="#eecc2d" d="M 58.5,134.5 C 58.6474,146.434 52.9808,150.601 41.5,147C 40.5223,140.59 40.189,134.09 40.5,127.5C 40.1762,124.32 41.5096,123.153 44.5,124C 50.5312,125.832 55.1979,129.332 58.5,134.5 Z"/></g>
<g><path style="opacity:0.938" fill="#f3d02e" d="M 106.5,128.5 C 104.5,128.5 102.5,128.5 100.5,128.5C 99.6708,133.453 99.3375,138.453 99.5,143.5C 101.5,143.5 103.5,143.5 105.5,143.5C 105.5,144.5 105.5,145.5 105.5,146.5C 101.138,146.756 96.8049,146.923 92.5,147C 91.1667,146 91.1667,145 92.5,144C 93.7932,143.51 95.1266,143.343 96.5,143.5C 96.5,138.167 96.5,132.833 96.5,127.5C 94.8333,127.5 93.1667,127.5 91.5,127.5C 91.5,126.5 91.5,125.5 91.5,124.5C 96.1785,124.334 100.845,124.501 105.5,125C 106.337,126.011 106.67,127.178 106.5,128.5 Z"/></g>
<g><path style="opacity:0.107" fill="#050605" d="M 136.5,126.5 C 139.987,127.445 141.32,129.778 140.5,133.5C 138.195,137.06 138.028,140.727 140,144.5C 144.352,148.665 148.352,148.331 152,143.5C 152.498,140.518 152.665,137.518 152.5,134.5C 153.5,134.5 154.5,134.5 155.5,134.5C 155.5,138.833 155.5,143.167 155.5,147.5C 156.833,147.5 158.167,147.5 159.5,147.5C 159.335,143.818 159.501,140.152 160,136.5C 162.601,133.696 164.101,134.029 164.5,137.5C 165.5,137.5 166.5,137.5 167.5,137.5C 167.5,136.5 167.5,135.5 167.5,134.5C 170.617,135.725 171.95,138.059 171.5,141.5C 171.333,142.833 171.167,144.167 171,145.5C 169.373,146.532 168.207,147.866 167.5,149.5C 155.167,149.5 142.833,149.5 130.5,149.5C 131.329,144.547 131.663,139.547 131.5,134.5C 133.167,134.5 134.833,134.5 136.5,134.5C 136.5,133.5 136.5,132.5 136.5,131.5C 134.833,131.5 133.167,131.5 131.5,131.5C 131.183,127.828 132.849,126.162 136.5,126.5 Z"/></g>
<g><path style="opacity:0.125" fill="#060606" d="M 40.5,127.5 C 40.189,134.09 40.5223,140.59 41.5,147C 52.9808,150.601 58.6474,146.434 58.5,134.5C 59.5,134.5 60.5,134.5 61.5,134.5C 59.0294,146.526 63.5294,150.192 75,145.5C 75.49,144.207 75.6567,142.873 75.5,141.5C 72.9954,141.98 70.6621,142.98 68.5,144.5C 67.069,144.023 65.7357,143.357 64.5,142.5C 66.5543,140.806 68.8877,139.639 71.5,139C 73.1412,137.871 74.1412,136.371 74.5,134.5C 75.1667,134.5 75.8333,134.5 76.5,134.5C 78.5581,138.29 80.3914,142.29 82,146.5C 83.0113,147.337 84.1779,147.67 85.5,147.5C 86.9592,142.456 88.6259,137.456 90.5,132.5C 90.2528,131.287 89.5862,130.62 88.5,130.5C 89.1667,129.167 90.1667,128.167 91.5,127.5C 93.1667,127.5 94.8333,127.5 96.5,127.5C 96.5,132.833 96.5,138.167 96.5,143.5C 95.1266,143.343 93.7932,143.51 92.5,144C 91.1667,145 91.1667,146 92.5,147C 96.8049,146.923 101.138,146.756 105.5,146.5C 105.5,145.5 105.5,144.5 105.5,143.5C 103.5,143.5 101.5,143.5 99.5,143.5C 99.3375,138.453 99.6708,133.453 100.5,128.5C 102.5,128.5 104.5,128.5 106.5,128.5C 107.5,128.833 108.167,129.5 108.5,130.5C 108.334,135.844 108.501,141.177 109,146.5C 110.011,147.337 111.178,147.67 112.5,147.5C 111.664,142.397 112.998,138.063 116.5,134.5C 117.576,138.775 118.243,143.108 118.5,147.5C 119.833,147.5 121.167,147.5 122.5,147.5C 121.8,143.202 121.467,138.869 121.5,134.5C 122.167,134.5 122.833,134.5 123.5,134.5C 124.708,135.234 126.041,135.567 127.5,135.5C 127.226,140.263 127.559,144.93 128.5,149.5C 97.8333,149.5 67.1667,149.5 36.5,149.5C 36.3338,143.491 36.5005,137.491 37,131.5C 37.66,129.676 38.8267,128.343 40.5,127.5 Z"/></g>
<g><path style="opacity:0.031" fill="#050605" d="M 128.5,127.5 C 128.912,129.973 127.912,131.306 125.5,131.5C 125.738,129.596 126.738,128.262 128.5,127.5 Z"/></g>
<g><path style="opacity:0.13" fill="#050605" d="M 44.5,128.5 C 51.8322,129.976 54.9989,134.309 54,141.5C 51.4537,144.186 48.287,145.186 44.5,144.5C 44.5,139.167 44.5,133.833 44.5,128.5 Z"/></g>
<g><path style="opacity:0.898" fill="#eac82c" d="M 74.5,134.5 C 74.1412,136.371 73.1412,137.871 71.5,139C 68.8877,139.639 66.5543,140.806 64.5,142.5C 65.7357,143.357 67.069,144.023 68.5,144.5C 70.6621,142.98 72.9954,141.98 75.5,141.5C 75.6567,142.873 75.49,144.207 75,145.5C 63.5294,150.192 59.0294,146.526 61.5,134.5C 65.8761,129.316 70.2094,129.316 74.5,134.5 Z"/></g>
<g><path style="opacity:0.895" fill="#ebca2c" d="M 81.5,134.5 C 82.8822,141.114 84.2155,141.114 85.5,134.5C 86.1429,132.924 87.1429,131.59 88.5,130.5C 89.5862,130.62 90.2528,131.287 90.5,132.5C 88.6259,137.456 86.9592,142.456 85.5,147.5C 84.1779,147.67 83.0113,147.337 82,146.5C 80.3914,142.29 78.5581,138.29 76.5,134.5C 77.7807,129.273 79.4474,129.273 81.5,134.5 Z"/></g>
<g><path style="opacity:0.9" fill="#ecca2d" d="M 108.5,130.5 C 110.451,130.227 111.951,130.893 113,132.5C 114.808,130.604 116.975,130.104 119.5,131C 120.823,131.816 121.489,132.983 121.5,134.5C 121.467,138.869 121.8,143.202 122.5,147.5C 121.167,147.5 119.833,147.5 118.5,147.5C 118.243,143.108 117.576,138.775 116.5,134.5C 112.998,138.063 111.664,142.397 112.5,147.5C 111.178,147.67 110.011,147.337 109,146.5C 108.501,141.177 108.334,135.844 108.5,130.5 Z"/></g>
<g><path style="opacity:0.896" fill="#eccb2d" d="M 152.5,134.5 C 152.665,137.518 152.498,140.518 152,143.5C 148.352,148.331 144.352,148.665 140,144.5C 138.028,140.727 138.195,137.06 140.5,133.5C 144.974,129.295 148.974,129.628 152.5,134.5 Z"/></g>
<g><path style="opacity:0.837" fill="#edcb2d" d="M 167.5,134.5 C 167.5,135.5 167.5,136.5 167.5,137.5C 166.5,137.5 165.5,137.5 164.5,137.5C 164.101,134.029 162.601,133.696 160,136.5C 159.501,140.152 159.335,143.818 159.5,147.5C 158.167,147.5 156.833,147.5 155.5,147.5C 155.5,143.167 155.5,138.833 155.5,134.5C 155.52,130.487 156.853,129.82 159.5,132.5C 161.632,130.883 163.965,130.383 166.5,131C 167.337,132.011 167.67,133.178 167.5,134.5 Z"/></g>
<g><path style="opacity:0.067" fill="#050605" d="M 66.5,134.5 C 67.8734,134.343 69.2068,134.51 70.5,135C 68.7513,136.292 66.918,137.458 65,138.5C 64.7003,136.934 65.2003,135.601 66.5,134.5 Z"/></g>
<g><path style="opacity:0.035" fill="#050605" d="M 81.5,134.5 C 82.8333,134.5 84.1667,134.5 85.5,134.5C 84.2155,141.114 82.8822,141.114 81.5,134.5 Z"/></g>
<g><path style="opacity:0.14" fill="#050605" d="M 145.5,134.5 C 149.422,136.101 150.255,138.768 148,142.5C 144.884,144.024 143.05,143.024 142.5,139.5C 143.092,137.577 144.092,135.911 145.5,134.5 Z"/></g>
</svg>
